<svg width="256" height="256" viewBox="0 0 256 256" fill="none" xmlns="http://www.w3.org/2000/svg">
<path d="M21.0006 156.956C21.1755 156.924 21.319 156.874 21.462 156.874C27.3598 156.897 33.258 156.888 39.1551 156.971C41.165 156.998 43.0116 157.708 44.6628 158.883C48.4316 161.565 48.7797 169.226 43.606 171.974C43.3427 172.114 43.0806 172.255 42.7232 172.446C43.7064 172.898 44.6737 173.2 45.4845 173.739C48.5964 175.806 49.8638 180.431 48.4707 184.494C47.255 188.039 44.3688 189.502 41.0122 190.281C39.9098 190.537 38.7553 190.669 37.623 190.677C32.1098 190.717 26.5962 190.695 21 190.695C21.0006 179.461 21.0006 168.226 21.0006 156.956V156.956ZM26.8971 185.75C30.9976 185.75 34.9798 185.844 38.9546 185.717C41.4532 185.637 43.2587 182.959 43.1084 180.354C42.9603 177.786 41.3791 175.602 38.9349 175.488C34.9944 175.304 31.0432 175.356 27.0962 175.315C27.0373 175.314 26.9774 175.401 26.8969 175.464L26.8971 185.75V185.75ZM26.9108 170.919C30.5758 170.919 34.1104 171.052 37.6291 170.875C40.2205 170.744 41.6831 168.672 41.5861 165.839C41.5003 163.332 40.0195 161.823 37.3537 161.753C34.0112 161.665 30.665 161.706 27.3201 161.698C27.1841 161.698 27.0478 161.771 26.9108 161.81V170.919V170.919ZM209.674 166.284H214.59V168.919C215.137 168.497 215.804 168.028 216.419 167.5C220.186 164.267 229.121 164.663 232.179 171.174C234.81 176.777 234.696 182.412 231.144 187.628C229.176 190.518 226.13 191.55 222.679 191.364C219.681 191.203 217.041 190.26 214.964 187.484V199.77H209.674C209.674 188.598 209.674 177.473 209.674 166.284V166.284ZM214.668 178.622C214.889 179.849 215.011 181.105 215.354 182.298C216.118 184.959 218.445 186.927 220.856 187.097C224.08 187.324 226.396 186.133 227.562 183.274C229.043 179.641 228.991 175.977 226.825 172.581C224.272 168.576 218.152 168.911 215.988 173.107C215.098 174.834 214.662 176.652 214.668 178.622V178.622ZM206.191 187.2C206.191 188.204 206.226 189.224 206.165 190.239C206.15 190.489 205.836 190.912 205.632 190.929C204.099 191.057 202.541 191.281 201.027 191.123C199.692 190.983 198.957 189.852 198.546 188.544C195.378 191.123 191.745 191.681 187.88 191.202C184.648 190.802 181.971 188.148 181.741 185.202C181.423 181.141 182.983 178.497 186.63 177.535C189.187 176.86 191.85 176.589 194.465 176.133C195.1 176.022 195.742 175.932 196.361 175.763C197.551 175.438 198.41 174.779 198.497 173.424C198.587 172.024 198.044 170.933 196.728 170.403C194.482 169.499 192.195 169.522 189.984 170.557C188.975 171.028 188.375 171.978 187.847 173.592H182.665C182.669 171.616 183.356 169.956 184.669 168.558C186.402 166.711 188.661 165.986 191.095 165.732C193.642 165.465 196.174 165.477 198.649 166.311C201.976 167.434 203.57 169.629 203.565 173.144C203.56 176.874 203.564 180.605 203.563 184.337C203.562 186.985 203.562 186.985 206.191 187.2V187.2ZM198.181 178.781C196.548 179.064 195.054 179.281 193.579 179.589C192.028 179.914 190.448 180.195 188.969 180.736C187.519 181.268 187.026 182.623 187.074 184.078C187.119 185.469 188.07 186.249 189.295 186.677C191.395 187.411 193.501 187.32 195.505 186.383C196.939 185.712 198.032 184.615 198.16 182.938C198.266 181.541 198.181 180.13 198.181 178.781V178.781ZM64.8409 165.579C72.9679 165.483 77.7336 171.441 77.2309 179.552C77.0565 182.371 76.2988 185.006 74.4431 187.234C72.4432 189.635 69.8701 190.899 66.7853 191.242C64.2093 191.53 61.7062 191.361 59.3193 190.277C55.7648 188.664 53.7372 185.848 52.8843 182.096C52.2994 179.524 52.325 176.963 52.9807 174.419C54.4271 168.808 58.7484 165.601 64.8409 165.579V165.579ZM57.7665 178.523C57.9798 179.714 58.0912 180.934 58.4262 182.09C59.2787 185.031 61.6006 186.974 64.2551 187.102C67.5364 187.261 69.8323 185.881 71.0516 182.825C72.2423 179.841 72.2442 176.787 70.9388 173.839C69.0048 169.472 63.7357 168.355 60.3428 171.601C58.408 173.452 57.9086 175.912 57.7665 178.523ZM93.0372 165.579C100.367 165.568 105.355 170.507 105.447 177.854C105.487 180.956 104.981 183.915 103.16 186.513C100.554 190.234 96.7882 191.535 92.4532 191.338C90.856 191.265 89.2003 190.91 87.7117 190.326C84.2167 188.954 82.1327 186.253 81.2066 182.637C80.3937 179.462 80.4842 176.308 81.5182 173.204C83.1041 168.444 87.4544 165.588 93.0372 165.579V165.579ZM100.063 177.863C99.9447 177.212 99.8281 175.953 99.4768 174.763C98.5839 171.736 96.2239 169.898 93.2505 169.769C90.4503 169.647 87.9316 171.298 86.8455 174.19C85.5662 177.596 85.6604 180.988 87.5879 184.162C89.5959 187.468 94.1477 188.192 97.133 185.725C99.4107 183.843 99.9679 181.245 100.063 177.863V177.863ZM145.383 173.07C143.711 173.07 142.082 173.084 140.454 173.053C140.253 173.049 139.941 172.848 139.876 172.668C138.961 170.126 136.807 169.823 134.58 169.811C133.656 169.805 132.674 170.03 131.819 170.389C129.991 171.155 129.788 173.223 131.501 174.214C132.689 174.901 134.084 175.27 135.424 175.647C137.321 176.181 139.278 176.503 141.163 177.072C145.98 178.528 147.863 183.358 145.166 187.34C143.872 189.25 141.937 190.283 139.718 190.819C136.439 191.61 133.174 191.668 129.97 190.511C126.541 189.272 124.729 186.786 124.462 183.023H129.694C131.182 186.906 135.385 188.418 139.323 186.434C140.234 185.974 140.842 185.321 140.903 184.248C140.968 183.1 140.525 182.113 139.495 181.729C137.659 181.045 135.742 180.575 133.857 180.022C132.296 179.565 130.685 179.234 129.178 178.638C126.272 177.487 125.009 175.507 125.027 172.488C125.043 169.855 126.582 167.599 129.311 166.609C133.067 165.247 136.9 165.078 140.673 166.556C143.224 167.555 144.744 169.525 145.376 172.179C145.433 172.423 145.383 172.695 145.383 173.07ZM116.978 166.216H121.82V170.176H117.075C117.041 170.65 116.998 170.982 116.998 171.313C116.993 175.31 116.991 179.307 116.999 183.303C117 183.835 117.042 184.368 117.094 184.898C117.198 185.955 117.785 186.582 118.849 186.64C119.824 186.694 120.804 186.652 121.837 186.652V190.611C119.625 191.158 117.377 191.129 115.201 190.645C112.667 190.08 111.638 188.337 111.616 185.037C111.585 180.546 111.607 176.054 111.606 171.562V170.242H107.584V166.237H111.552V158.903H116.978C116.978 161.302 116.978 163.683 116.978 166.216ZM162.266 190.764C160.182 190.764 158.21 190.828 156.244 190.745C154.339 190.664 152.871 189.4 152.455 187.514C152.218 186.439 152.092 185.342 152.08 184.24C152.038 180.015 152.062 175.788 152.062 171.562V170.226H148.054V166.274H152.003V158.91H157.44V166.154H162.259V170.135H157.635C157.579 170.494 157.507 170.742 157.507 170.99C157.503 175.293 157.49 179.595 157.518 183.897C157.532 186.172 158.128 186.72 160.383 186.704C160.986 186.7 161.589 186.703 162.266 186.703L162.266 190.764V190.764ZM171.31 166.298V170.464C173.398 166.919 176.288 165.072 180.555 165.701V170.841C178.528 170.536 176.572 170.482 174.841 171.727C172.569 173.36 171.776 175.746 171.719 178.376C171.632 182.442 171.697 186.512 171.697 190.669H166.371V166.297C167.984 166.298 169.564 166.298 171.31 166.298V166.298Z" fill="url(#paint0_linear_319_646)"/>
<path d="M84.4725 68.3215C84.2663 62.4314 88.8802 57 95.1168 57H159.022C165.259 57 169.873 62.4314 169.667 68.3215C169.469 73.9795 169.726 81.3088 171.58 87.2849C173.441 93.2794 176.578 97.0685 181.716 97.5554V103.076C176.578 103.563 173.441 107.352 171.58 113.346C169.726 119.323 169.469 126.652 169.667 132.31C169.873 138.2 165.259 143.631 159.022 143.631H95.1168C88.8802 143.631 84.2663 138.2 84.4728 132.31C84.6707 126.652 84.4134 119.323 82.5587 113.346C80.6985 107.352 77.5535 103.563 72.415 103.076V97.5554C77.5533 97.0685 80.6985 93.2794 82.5587 87.2849C84.4134 81.3088 84.6707 73.9795 84.4725 68.3215V68.3215Z" fill="url(#paint1_linear_319_646)"/>
<g filter="url(#filter0_d_319_646)">
<path d="M129.435 123.345C139.532 123.345 145.617 118.427 145.617 110.317C145.617 104.186 141.275 99.7479 134.829 99.0453V98.7899C139.565 98.0236 143.282 93.6491 143.282 88.7638C143.282 81.8029 137.756 77.2686 129.337 77.2686H110.393V123.345H129.435ZM117.76 83.1119H127.561C132.889 83.1119 135.914 85.4748 135.914 89.7534C135.914 94.3196 132.395 96.874 126.015 96.874H117.76V83.1119V83.1119ZM117.76 117.501V102.334H127.495C134.467 102.334 138.085 104.889 138.085 109.87C138.085 114.851 134.566 117.501 127.922 117.501H117.76V117.501Z" fill="url(#paint2_linear_319_646)"/>
<path d="M129.435 123.345C139.532 123.345 145.617 118.427 145.617 110.317C145.617 104.186 141.275 99.7479 134.829 99.0453V98.7899C139.565 98.0236 143.282 93.6491 143.282 88.7638C143.282 81.8029 137.756 77.2686 129.337 77.2686H110.393V123.345H129.435ZM117.76 83.1119H127.561C132.889 83.1119 135.914 85.4748 135.914 89.7534C135.914 94.3196 132.395 96.874 126.015 96.874H117.76V83.1119V83.1119ZM117.76 117.501V102.334H127.495C134.467 102.334 138.085 104.889 138.085 109.87C138.085 114.851 134.566 117.501 127.922 117.501H117.76V117.501Z" stroke="white"/>
</g>
<defs>
<filter id="filter0_d_319_646" x="93.8926" y="64.7686" width="68.2241" height="79.0759" filterUnits="userSpaceOnUse" color-interpolation-filters="sRGB">
<feFlood flood-opacity="0" result="BackgroundImageFix"/>
<feColorMatrix in="SourceAlpha" type="matrix" values="0 0 0 0 0 0 0 0 0 0 0 0 0 0 0 0 0 0 127 0" result="hardAlpha"/>
<feOffset dy="4"/>
<feGaussianBlur stdDeviation="8"/>
<feColorMatrix type="matrix" values="0 0 0 0 0 0 0 0 0 0 0 0 0 0 0 0 0 0 0.15 0"/>
<feBlend mode="normal" in2="BackgroundImageFix" result="effect1_dropShadow_319_646"/>
<feBlend mode="normal" in="SourceGraphic" in2="effect1_dropShadow_319_646" result="shape"/>
</filter>
<linearGradient id="paint0_linear_319_646" x1="20.714" y1="159.002" x2="155.722" y2="213.889" gradientUnits="userSpaceOnUse">
<stop stop-color="#8F13FE"/>
<stop offset="1" stop-color="#6E10F4"/>
</linearGradient>
<linearGradient id="paint1_linear_319_646" x1="88.6563" y1="59.2928" x2="183.769" y2="135.201" gradientUnits="userSpaceOnUse">
<stop stop-color="#9013FE"/>
<stop offset="1" stop-color="#6610F2"/>
</linearGradient>
<linearGradient id="paint2_linear_319_646" x1="113.724" y1="80.3013" x2="134.903" y2="116.313" gradientUnits="userSpaceOnUse">
<stop stop-color="white"/>
<stop offset="1" stop-color="#F1E5FC"/>
</linearGradient>
</defs>
</svg>
